<svg id="Capa_1" enable-background="new 0 0 511.997 511.997" height="512" viewBox="0 0 511.997 511.997" width="512" xmlns="http://www.w3.org/2000/svg"><g><path d="m437.8 181.806c0 23.918-15.149 44.655-23.773 65.453-8.941 21.561-13.227 46.851-29.475 63.1-16.248 16.248-41.539 20.535-63.099 29.475-20.798 8.624-41.536 23.773-65.453 23.773-23.918 0-44.655-15.149-65.453-23.773-21.561-8.941-46.851-13.227-63.1-29.475-16.248-16.248-20.535-41.539-29.475-63.099-8.624-20.798-23.773-41.536-23.773-65.453 0-23.918 15.149-44.655 23.773-65.453 8.941-21.561 13.227-46.851 29.475-63.1 16.248-16.248 41.539-20.535 63.099-29.475 20.798-8.624 41.536-23.773 65.453-23.773 23.918 0 44.655 15.149 65.453 23.773 21.561 8.941 46.851 13.227 63.1 29.475 16.248 16.248 20.535 41.539 29.475 63.099 8.624 20.798 23.773 41.536 23.773 65.453z" fill="#b3dafe"/><path d="m437.796 181.808c0 23.92-15.141 44.653-23.765 65.447-8.943 21.566-13.229 46.852-29.481 63.104-16.251 16.251-41.538 20.538-63.093 29.481-20.805 8.624-41.538 23.765-65.458 23.765-3.454 0-6.846-.318-10.187-.884 19.787-3.33 45.888-26.973 63.712-34.363 21.566-8.943 40.465-10.458 56.716-26.71 16.251-16.241 18.608-32.858 27.55-54.414 8.624-20.795 23.765-41.538 23.765-65.458s-15.141-44.653-23.765-65.447c-8.943-21.566-12.432-44.214-30.55-58.355-15.959-12.456-32.697-12.456-57.999-25.302-17.176-8.72-39.571-28.448-59.307-31.809 3.301-.555 6.652-.863 10.065-.863 23.92 0 44.653 15.151 65.458 23.776 21.555 8.943 46.842 13.229 63.093 29.481 16.251 16.241 20.538 41.538 29.481 63.094 8.624 20.804 23.765 41.537 23.765 65.457z" fill="#8ac9fe"/><g fill="#ffa78f"><path d="m145.757 235.847h-4.951c-14.93 0-27.034-12.103-27.034-27.034 0-14.93 12.103-27.034 27.034-27.034h4.951z"/><path d="m366.24 235.847h4.951c14.93 0 27.034-12.103 27.034-27.034 0-14.93-12.103-27.034-27.034-27.034h-4.951z"/></g><g><path d="m432.455 509.215h-350.979c-.279-4.793-.279-6.704-.06-11.248 1.843-38.702 18.905-73.605 48.39-98.745 32.87-28.037 66.063-39.91 78.442-43.626 2.049-.615 8.817-3.036 10.004-3.665.525-.278.892-1.342 1.366-1.677 10.971-7.663 8.819-29.295 8.819-29.295h55.123s-2.152 21.633 8.818 29.295c.324.229.946 1.82 1.294 2.023 1.311.764 2.429 1.303 4.101 1.64 2.097.423 4.102 1.128 6.151 1.743 12.38 3.716 45.664 16.524 78.534 44.561 29.485 25.14 48.213 59.044 50.057 97.745.219 4.545.219 6.456-.06 11.249z" fill="#ffa78f"/><path d="m434.591 511.997h-150.5l-2.971-2.266h-50.337l-2.877 2.266h-150.5c-.279-4.793-.279-9.486-.06-14.03 1.843-38.702 20.397-74.594 49.882-99.734 11.232-9.581 22.765-17.334 33.575-23.537.381-.218.76-.435 1.139-.65 20.345-11.525 38.04-16.73 46.04-19.132 2.049-.615 4.175-1.27 6.272-1.692 1.617-.326 2.719-.565 3.997-1.291.395-.224 1.002-1.42 1.366-1.677 1.706 9.703 6.185 21.309 17.375 28.576 11.485 7.459 26.525 7.459 38.01 0 11.19-7.268 15.669-18.874 17.375-28.577.216.152 1.068 1.882 1.294 2.023 1.394.868 2.28 1.273 4.101 1.64 2.097.423 4.102 1.128 6.151 1.743 8.044 2.414 24.644 7.219 45.128 18.867.269.153 1.871.014 2.141.168 10.81 6.203 22.344 13.956 33.576 23.537 29.485 25.14 48.039 61.032 49.882 99.734.22 4.546.22 9.239-.059 14.032z" fill="#b3dafe"/><path d="m434.589 511.995h-22.82c0-2.272-.051-4.513-.154-6.723-1.85-38.711-20.404-74.596-49.885-99.739-27.908-23.796-57.666-36.316-73.588-41.826 2.189-4.502 3.485-9.159 4.235-13.456 1.449 1.025 3.136 1.796 5.085 2.239 2.464.56 4.926 1.088 7.342 1.827 12.994 3.97 47.716 16.407 79.962 43.918 29.491 25.143 48.045 61.027 49.885 99.728.215 4.544.215 9.241-.062 14.032z" fill="#8ac9fe"/><path d="m351.194 374.696-50.271 45.843c-10.722 9.778-16.832 23.618-16.832 38.128v53.328h-56.186v-53.328c0-14.511-6.11-28.351-16.832-38.128l-50.271-45.843c20.789-11.933 38.905-18.132 47.075-20.586 2.066-.621 4.163-1.11 6.278-1.537 2.111-.426 3.922-1.229 5.464-2.32 1.686 9.58 6.065 21.011 16.94 28.288 11.687 7.833 27.188 7.833 38.876 0 10.875-7.278 15.254-18.708 16.94-28.288 1.451 1.027 3.14 1.798 5.092 2.241 2.482.562 4.96 1.098 7.393 1.842 8.493 2.596 26.154 8.776 46.334 20.36z" fill="#d8ecfe"/><path d="m351.194 374.696-14.01 12.767c-19.572-12.438-37.776-19.859-49.042-23.755.278-.565.535-1.131.781-1.696 1.071-2.455 1.924-5.037 2.576-7.625.221-.877.392-1.762.59-2.644.113-.504.206-.997.288-1.491 1.832 1.296 4.043 2.186 6.685 2.52.297.038.59.087.88.162.414.107 1.113.291 2.066.556 3.707 1.033 7.367 2.264 10.999 3.557 5.89 2.097 13.394 5.068 21.833 9.087 2.286 1.089 4.556 2.215 6.815 3.371 2.272 1.162 4.486 2.36 6.733 3.608.925.514 1.86 1.038 2.806 1.583z" fill="#c4e2ff"/></g><g><path d="m143.477 215.841c0 3.834.193 7.628.568 11.361 5.69 56.803 53.639 101.161 111.953 101.161 31.08 0 59.207-12.598 79.565-32.956 17.853-17.852 29.73-41.669 32.388-68.205.375-3.733.568-7.526.568-11.361v-44.436c0-5.424-4.215-9.933-9.629-10.254-37.563-2.225-73.692-11.09-93.999-31.483l-.107-.107c-4.845-4.871-12.728-4.871-17.574 0l-.107.107c-6.035 6.061-13.469 11.104-21.922 15.256-7.328 3.6-15.423 6.531-24.038 8.877-8.776 2.39-18.092 4.172-27.687 5.435-6.676.879-13.488 1.507-20.347 1.913-5.417.321-9.634 4.828-9.634 10.254z" fill="#ffcebf"/></g><path d="m358.88 160.982c5.42.335 9.644 4.829 9.644 10.26v44.601c0 3.834-.195 7.627-.576 11.359-2.652 26.541-14.535 50.358-32.39 68.202-20.353 20.363-48.477 32.955-79.561 32.955-3.464 0-6.897-.154-10.279-.473 26.983-2.426 51.2-14.391 69.282-32.482 17.855-17.845 29.738-41.661 32.39-68.202.38-3.731.576-7.524.576-11.359v-55.535z" fill="#ffb09e"/><g><g><path d="m210.006 216.313c-4.143 0-7.5-3.358-7.5-7.5v-13.83c0-4.142 3.357-7.5 7.5-7.5s7.5 3.358 7.5 7.5v13.83c0 4.143-3.357 7.5-7.5 7.5z" fill="#596c76"/></g><g><path d="m301.991 216.313c-4.143 0-7.5-3.358-7.5-7.5v-13.83c0-4.142 3.357-7.5 7.5-7.5s7.5 3.358 7.5 7.5v13.83c0 4.143-3.358 7.5-7.5 7.5z" fill="#596c76"/></g></g><path d="m368.52 195.564v20.277c0 3.834-.193 7.628-.568 11.361-2.658 26.535-14.536 50.352-32.388 68.205-20.358 20.358-48.486 32.956-79.565 32.956-58.315 0-106.263-44.357-111.953-101.161-.375-3.733-.568-7.526-.568-11.361v-20.277s23.256 35.423 84.312 45.1c18.681 2.961 37.737 2.961 56.418 0 61.056-9.676 84.312-45.1 84.312-45.1z" fill="#f5f8f9"/><path d="m368.524 195.561v20.281c0 3.834-.195 7.627-.576 11.359-2.652 26.541-14.535 50.358-32.39 68.202-20.353 20.363-48.477 32.955-79.561 32.955-2.657 0-5.11-.054-7.73-.268-.853-.051-1.706-.123-2.549-.206 26.983-2.426 51.2-14.391 69.282-32.482 17.855-17.845 29.738-41.661 32.39-68.202.38-3.731.576-7.524.576-11.359v-.401c14.37-10.453 20.558-19.879 20.558-19.879z" fill="#d9e7ec"/></g></svg>